# xmcd CD database file
#
# Track frame offsets:
#	150
#	47236
#	60021
#	133995
#	185629
#	215259
#	223787
#	231294
#	241452
#	251148
#	264009
#
# Disc length: 3640 seconds
#
# Revision: 1
# Processed by: cddbd v1.5.2PL0 Copyright (c) Steve Scherf et al.
# Submitted via: CDex 1.77
#
DISCID=a30e360b
DTITLE=Stephen Kovacevich - Beethoven - Piano Sonatas #29 and 31 - Stephen Kovacevich (2001, 1992)
DYEAR=1900
DGENRE=Country
TTITLE0=Beethoven: Piano Sonata #29 In B Flat, Op. 106, 'Hammerklavier' - 1. Allegro (2001)
TTITLE1=Beethoven: Piano Sonata #29 In B Flat, Op. 106, 'Hammerklavier' - 2. Scherzo: Assai Vivace (2001)
TTITLE2=Beethoven: Piano Sonata #29 In B Flat, Op. 106, 'Hammerklavier' - 3. Adagio Sostenuto (2001)
TTITLE3=Beethoven: Piano Sonata #29 In B Flat, Op. 106, 'Hammerklavier' - 4. Largo, Allegro Risoluto (2001)
TTITLE4=Beethoven: Piano Sonata #31 In A Flat, Op. 110 - 1. Moderato Cantabile, Molto Espressivo (1992)
TTITLE5=Beethoven: Piano Sonata #31 In A Flat, Op. 110 - 2. Allegro Molto (1992)
TTITLE6=Beethoven: Piano Sonata #31 In A Flat, Op. 110 - 3A. Adagio Ma Non Troppo (1992)
TTITLE7=Beethoven: Piano Sonata #31 In A Flat, Op. 110 - 3B. Arioso Dolente (1992)
TTITLE8=Beethoven: Piano Sonata #31 In A Flat, Op. 110 - 4A. Fuga: Allegro Ma Non Troppo (1992)
TTITLE9=Beethoven: Piano Sonata #31 In A Flat, Op. 110 - 4B. L'Istesso Tempo Di Arioso (1992)
TTITLE10=Beethoven: Piano Sonata #31 In A Flat, Op. 110 - 4C. L'Istesso Tempo Della Fuga Poi Di Nuovo Vivente (1992)
EXTD=
EXTT0=
EXTT1=
EXTT2=
EXTT3=
EXTT4=
EXTT5=
EXTT6=
EXTT7=
EXTT8=
EXTT9=
EXTT10=
PLAYORDER=
